<?xml version="1.0" encoding="UTF-8"?><svg xmlns="http://www.w3.org/2000/svg" viewBox="0 0 434.25 382.44"><defs><style>.h{stroke:#febd1f;stroke-width:6px;}.h,.i{fill:none;stroke-linecap:round;stroke-miterlimit:10;}.j{fill:#596163;}.k{fill:#1d2228;}.l{fill:#283035;}.i{stroke:#a7a9ac;stroke-width:8px;}</style></defs><g id="a"/><g id="b"><circle class="l" cx="193.93" cy="193.32" r="148.81"/></g><g id="c"><path class="k" d="M60.63,127.12c-5.63,11.4-13.43,30.81-15.16,55.98-.84,12.26-1.55,44.9,16.87,79.8,5.59,10.6,29.49,52.74,82.16,71.22,46.39,16.27,86.34,4.09,99.73-.72,21.21-7.63,36.49-18.64,45.74-26.43-14.46,2.02-83.24,10.06-147.19-36.39C71.48,218.77,61.94,139.68,60.63,127.12Z"/></g><g id="d"><path class="j" d="M265.51,99.4c-11.55-13.33-26.12-17.16-45.84-22.07-23.07-5.74-68.78-12.49-73.15-.57-4.38,11.95,35.18,36.16,54.19,47.79,26.38,16.14,63.13,38.63,75.67,27.36,9.7-8.73,3.28-36.2-10.86-52.52Z"/></g><g id="e"/><g id="f"><g><rect class="k" x="240.16" y="40.16" width="81.69" height="34.56" transform="translate(74.36 -141.46) rotate(32.35)"/><path class="k" d="M243.11,40.94l-6.35,10.03c1.6,4.89,8,22.43,26.66,34.25,18.66,11.82,37.25,10.11,42.35,9.47l6.35-10.03-69.01-43.72Z"/><ellipse class="l" cx="290.26" cy="42.84" rx="21.99" ry="40.85" transform="translate(98.74 265.12) rotate(-57.65)"/></g></g><g id="g"><path class="i" d="M296.2,36.68c6.32-8.86,12.64-17.73,18.96-26.59,.79-.67,10.72-8.78,23.24-5.16,10.12,2.92,16.94,12.34,17.72,20.75,.76,8.19-4.62,11.09-2.73,19.41,1.73,7.63,7.79,12.01,8.99,12.87,11.63,8.4,26.15,2.15,26.91,1.81"/><line class="h" x1="429.91" y1="43.69" x2="402.14" y2="54.86"/><line class="h" x1="408.78" y1="19.06" x2="397.04" y2="46.59"/><line class="h" x1="377.14" y1="22.33" x2="388.31" y2="50.11"/><line class="h" x1="431.25" y1="76.28" x2="403.71" y2="64.54"/><line class="h" x1="406.14" y1="95.82" x2="394.98" y2="68.05"/></g></svg>